<?xml version="1.0" encoding="UTF-8"?>
<svg id="_レイヤー_1" data-name="レイヤー_1" xmlns="http://www.w3.org/2000/svg" version="1.1" viewBox="0 0 195.72 197.26">
  <!-- Generator: Adobe Illustrator 30.1.0, SVG Export Plug-In . SVG Version: 2.1.1 Build 65)  -->
  <defs>
    <style>
      .st0 {
        fill: #e3b339;
      }

      .st0, .st1, .st2, .st3, .st4, .st5, .st6 {
        fill-rule: evenodd;
      }

      .st7 {
        fill: #231f20;
      }

      .st1 {
        fill: #f27179;
      }

      .st2 {
        fill: #8fba7b;
      }

      .st3 {
        fill: #f7a26a;
      }

      .st4 {
        fill: #0066b3;
      }

      .st5 {
        fill: #0f0e0c;
      }

      .st6 {
        fill: #89b04b;
      }

      .st8 {
        fill: #58595b;
      }
    </style>
  </defs>
  <g>
    <g>
      <path class="st7" d="M15.06,148.6c-1.14,4.43-3.52,10.66-4.32,12.57-.37.92-4.14,9.45-6.96,13.67l-3.77-1.87c.88-1.76,2.3-5.06,3.45-7.58,2.6-5.97,2.86-6.6,5.16-12.28,1.21-3,1.87-4.51,2.49-5.9l3.96,1.39ZM26.3,151.46c2.09,4.25,6.42,15.75,7.88,21.18l-3.85,1.43c-1.76-3.55-3.22-7.26-4.62-10.95-1.25-3.41-2.35-6.89-3.37-10.37l3.96-1.28Z"/>
      <path class="st7" d="M55.18,154.39c-.58,3.52-1.72,8.61-2.68,11.36-.55,1.61-2.78,7.04-4.65,10.51l-4.03-1.5c3.44-9.45,3.81-10.51,5.53-15.79.59-1.83,1.32-4.03,1.72-5.53l4.1.95ZM62.88,144.79c.18,4.84.26,9.67.26,14.51,0,1.72-.11,9.23-.11,10.77,4.65-1.65,11.21-3.59,12.16-3.85l1.28,3.85c-6.08,3.15-12.64,5.02-17.99,6.12-.04-.88-.07-1.57-.07-2.49-.08-3.55-.22-11.43-.22-14.66,0-.81.22-12.2.33-14.25h4.36Z"/>
      <path class="st7" d="M99.19,156.68c-2.04,5.06-4.14,8.9-5.84,11.98.92-.2,1.67-.33,2.76-.53l.76,3.22c-4.04,1.31-6.93,1.97-10.51,2.66l-.76-3.19c.92-.33,1.67-.56,3.09-.98,2.3-4.96,4.76-9.85,7.48-14.61l3.02,1.45ZM97.38,147.48c-2,3.12-3.64,5.22-5.81,7.78.85.62,1.51,1.22,2.27,2.07l-2.23,2.69c-1.9-1.38-3.32-2.53-4.99-4.2,2.33-3.68,5.42-7.52,7.98-10.38l2.79,2.04ZM98.4,173.39c-.98-2.66-1.48-4.53-1.9-6.96l3.25-.82c.33.98,1.02,2.99,1.57,5.71,1.15-4.11,2.3-8.24,3.42-12.35-.26,0-1.74.07-4.14.1l.03-3.35c2.04-.23,2.17-.26,5.12-.49.82-2.92,1.8-6.57,2.62-9.68l3.35.59c-.62,3.84-.82,4.99-1.71,8.83,3.35-.13,4.4-.16,7.03-.13-.13,4.2-.72,11.16-3.18,19.67-3.15-.23-5.65-.75-6.83-1.02l.69-3.15c1.21.07,1.74.1,3.09.26.79-4.92,1.21-7.29,2.13-12.15-1.02.1-1.28.13-3.84.29-1.34,4.92-2.46,9.03-5.25,15.99l-3.25-.92c.2-.69.23-.79.33-1.08l-2.53.66Z"/>
      <path class="st7" d="M146.02,164.07c.7-.03,1.14-.1,2.36-.16.03-1.11.03-1.75.06-2.55h3.12c0,.32,0,.51.06,2.42.61,0,1.15-.03,2.77,0v2.87c-.57.06-.95.06-2.74.19,0,.64.03,1.69,0,1.91,1.69-.03,2.13-.03,2.9-.03v2.8c-1.69.16-2.35.19-2.93.22,0,.57-.03,1.78-.03,2.29,1.78-.03,1.97-.06,3.6-.1h.35v3.09c-4.71.29-9.43.48-14.14.45-.06-4.04-.1-5.48-.1-10.03,0-.83.06-4.58.06-5.35-1.08,1.53-1.66,2.33-2.1,2.93l-2.64-1.78c.13-.22.61-.99.89-1.5-.22.03-1.78.16-1.81.16.06,5.29.03,10.54-.12,15.8h-3.44c-.13-4.55-.13-4.68-.13-9.08-2.1,1.97-3.76,3.18-4.53,3.76l-1.91-2.55c.86-.86,3.02-3.09,6.46-5.73l.03-1.97c-.73.03-3.92.16-4.59.16v-3.06c2.39-.22,3.73-.32,4.65-.38.03-.67.13-3.72.16-4.33h3.25c0,.41,0,.8.1,4.14,1.46-.07,2.04-.07,2.68-.07v1.88c3.51-5.48,4.65-7.23,8.66-12.61l2.68,1.75c-1.53,2.42-3.09,4.93-5,7.77,3.79-.32,7.65-.48,11.5-.51v3.15c-3.35.22-6.66.38-11.21.58.06,2.61.09,5.22.09,7.8,0,1.02,0,3.31-.06,5.95.45-.03.73-.03,3.47-.19,0-.45-.03-1.02-.06-2.29h-2.42v-2.83c.51-.03,1.78-.13,2.39-.16v-1.94h-2.32v-2.87ZM126.14,152.51c5.38-1.98,8.95-3.09,13.88-4.36l.92,2.96c-5.6,2.01-9.14,3.15-13.85,4.46l-.96-3.06ZM139.84,167.19c0,1.15-.83,1.94-1.91,1.94-1.02,0-2.17-.76-2.17-2.23s1.12-1.88,2.01-1.88c.73,0,2.07.7,2.07,2.16ZM153.97,153.75c0,.96-.92,2.36-2.45,2.36-1.24,0-2.26-.92-2.26-2.2,0-1.4,1.21-2.33,2.42-2.33,1.5,0,2.29,1.21,2.29,2.17Z"/>
      <path class="st7" d="M170.74,145.57c.24,10.68.38,16.33.35,26.8,4.78-.28,12.7-.56,20.59-.56-.14-5.69-.31-12.74-.25-22.58-6.38.31-12.84.59-19.23.77v-3.56c10.47-.84,18.81-.87,23.28-.91.17,6.94.24,12.04.24,18.63,0,3.56-.07,7.57-.1,11.13-9.56.42-19.12.63-28.65.73-.14-4.33-.31-10.4-.31-18.15,0-4.08.03-8.16.14-12.25l3.94-.07ZM181.94,166.71c.04,2.06.04,2.44-.07,4.4h-3.38c-.1-1.81-.14-2.27-.1-2.86-1.19.77-2.41,1.5-4.68,2.83l-1.46-2.34c3-2.2,4.22-3,5.76-3.98-2.16.11-2.41.11-2.79.11-.04-.63-.1-1.43-.1-2.9,0-1.15.04-2.23.07-2.83l3.07-.04c.1,1.33.1,1.5.14,3.42,2.27-.1,2.79-.14,5.23-.21-.04-.28-.04-.46-.04-1.15-2.44.14-2.69.17-4.57.24v-2.13c2.93-.28,4.43-.35,7.99-.38.07,1.75.11,3.53.07,5.27.17-.14.56-.52,1.36-.52,1.26,0,1.92,1.05,1.92,1.85s-.66,1.75-1.81,1.75c-.94,0-2.02-.63-2.02-1.75,0-.42.14-.8.42-1.15-1.54.07-1.71.1-3.18.17-.84.63-2.06,1.46-3.1,2.2h1.29ZM187.45,154.04c-1.92.14-3.42.21-4.08.25v1.22c1.75-.07,3.24-.1,6.28-.17l.04,2.23c-7.78.56-10.61.63-16.68.8v-2.27c2.16-.17,2.58-.21,6.49-.45,0-.17-.04-1.01-.04-1.19-.98.04-3.07.14-4.99.21v-2.03c2.65-.21,3.63-.28,4.96-.35,0-.45,0-.7.03-1.67l3.73-.14c.07.98.07,1.19.11,1.67.11,0,2.41-.1,4.15-.1v1.99ZM188.01,171.04c-1.78-.98-4.29-2.72-5.58-3.77l1.61-2.16c1.61.84,4.22,2.58,5.69,3.73l-1.71,2.2Z"/>
    </g>
    <g>
      <path class="st8" d="M19.53,191.57c.25,0,.37.11.37.33s-.12.33-.37.33h-4.31c-.25,0-.37-.11-.37-.33s.12-.33.37-.33h4.31Z"/>
      <path class="st8" d="M31.72,187.02c0-.31.14-.47.42-.47s.42.16.42.47v.89l2.81-.09c.28,0,.42.12.42.37s-.14.37-.42.37l-2.81.09v2.95c.12.53.22.95.28,1.27.03.22.05.48.05.8,0,1.06-.44,1.92-1.31,2.58-.87.66-2.14.98-3.8.98-.22-.03-.33-.14-.33-.33,0-.22.11-.34.33-.37,1.31,0,2.34-.25,3.09-.75.75-.5,1.12-1.12,1.12-1.87v-.7c-.59.91-1.34,1.36-2.25,1.36-.81,0-1.44-.23-1.88-.7-.44-.5-.66-1.05-.66-1.64,0-.62.23-1.2.7-1.73.37-.37.83-.61,1.36-.7.31-.06.62-.06.94,0,.59.12,1.09.41,1.5.84v-1.92c-2.19.09-4.27.16-6.23.19-.22,0-.33-.12-.33-.37s.11-.37.33-.37c2.06-.03,4.14-.09,6.23-.19v-.94ZM28.39,191c-.28.37-.42.75-.42,1.12,0,.56.2,1.02.61,1.36.31.25.69.37,1.12.37.53,0,.98-.17,1.36-.52.34-.38.52-.75.52-1.12,0-.44-.11-.81-.33-1.12-.38-.47-.88-.7-1.5-.7-.53,0-.98.2-1.36.61Z"/>
      <path class="st8" d="M37.74,186.88c.28.03.41.19.37.47-.22,1.34-.37,2.44-.47,3.28-.06.72-.09,1.42-.09,2.11,0,1.22.06,2.41.19,3.56,0,.28-.12.44-.37.47-.25.03-.41-.11-.47-.42-.09-.91-.14-1.81-.14-2.72s.02-1.73.05-2.48c.03-.78.19-2.08.47-3.89.03-.28.19-.41.47-.37ZM43.79,187.07c0-.28.14-.42.42-.42s.42.14.42.42l.05,1.59,1.64-.05c.28,0,.44.12.47.37,0,.25-.14.37-.42.37l-1.69.05c.09,1.47.14,2.89.14,4.27.87.53,1.53,1.02,1.97,1.45.22.25.25.5.09.75-.22.19-.45.19-.7,0-.53-.56-1-.98-1.41-1.27-.09.84-.37,1.44-.84,1.78-.53.37-1.22.56-2.06.56-.72,0-1.33-.17-1.83-.52-.56-.44-.84-.98-.84-1.64,0-.59.27-1.09.8-1.5.53-.34,1.17-.52,1.92-.52.59,0,1.31.19,2.16.56-.03-1.41-.09-2.7-.19-3.89-2.03.06-3.56.09-4.59.09-.28,0-.42-.12-.42-.37s.14-.37.42-.37h1.12c1.31-.03,2.45-.06,3.42-.09l-.05-1.64ZM40.08,194.05c-.19.25-.28.5-.28.75,0,.44.2.8.61,1.08.34.25.83.37,1.45.37.75,0,1.31-.17,1.69-.52.31-.31.47-.84.47-1.59-.84-.47-1.55-.7-2.11-.7-.84,0-1.45.2-1.83.61ZM45.19,186.27c.16-.06.28-.03.37.09.37.56.62,1.08.75,1.55.03.16-.03.27-.19.33-.19.03-.31-.03-.37-.19-.22-.56-.44-1.05-.66-1.45-.06-.12-.03-.23.09-.33ZM46.32,186.04c.16-.06.28-.03.37.09.37.53.62,1.05.75,1.55.03.16-.03.27-.19.33-.19.03-.31-.03-.37-.19-.22-.56-.44-1.05-.66-1.45-.06-.12-.03-.23.09-.33Z"/>
      <path class="st8" d="M48.71,188.85c.09-.25.27-.36.52-.33.25.09.34.27.28.52-.22.84-.39,1.61-.52,2.3-.09.56-.14,1.05-.14,1.45.97-.72,1.77-1.2,2.39-1.45.75-.28,1.52-.42,2.3-.42,1.22,0,2.19.34,2.91,1.03.47.47.7,1.03.7,1.69,0,.84-.28,1.53-.84,2.06-.87.81-2.27,1.22-4.17,1.22-.91,0-1.7-.05-2.39-.14-.22-.03-.33-.16-.33-.37s.12-.33.38-.33c.75.06,1.48.09,2.2.09,1.59,0,2.81-.36,3.66-1.08.37-.37.56-.86.56-1.45,0-.53-.22-.97-.66-1.31-.5-.41-1.19-.61-2.06-.61-.75,0-1.44.12-2.06.37-.31.12-.7.33-1.17.61-.62.44-1.12.8-1.5,1.08-.37.22-.61.11-.7-.33v-.47c.09-1.22.27-2.39.52-3.52l.14-.61ZM55,187.63c.25.09.36.27.33.52-.06.28-.23.39-.52.33-1.5-.47-3.22-.8-5.16-.98-.19-.06-.28-.17-.28-.33,0-.19.11-.3.33-.33,2,.12,3.77.39,5.3.8Z"/>
      <path class="st8" d="M59.54,187.49c.03-.28.17-.42.42-.42.31,0,.45.16.42.47-.12,2.12-.2,3.84-.23,5.16v.66c0,.88.23,1.55.7,2.02.44.44,1.08.66,1.92.66,1.16,0,2.19-.44,3.09-1.31.62-.59,1.23-1.48,1.83-2.67.09-.25.28-.36.56-.33.28.09.36.31.23.66-.47.97-1.08,1.87-1.83,2.72-1.12,1.16-2.41,1.73-3.84,1.73-1.12,0-1.98-.3-2.58-.89-.59-.59-.89-1.41-.89-2.44v-1.55l.19-4.45Z"/>
      <path class="st8" d="M70.31,187.25c.31,0,.45.16.42.47-.09.69-.17,1.27-.23,1.73-.16,1.03-.23,1.92-.23,2.67,0,.53.03,1.03.09,1.5.09.94.33,1.58.7,1.92.19.19.37.2.56.05.5-.5.97-1.62,1.41-3.38.06-.19.2-.27.42-.23.22.06.3.22.23.47l-.05.23c-.34,1.44-.72,2.47-1.12,3.09-.41.62-.8.94-1.17.94-.44-.03-.84-.39-1.22-1.08-.41-.75-.61-1.94-.61-3.56,0-.69.03-1.47.09-2.34.06-.75.14-1.44.23-2.06.06-.31.22-.45.47-.42ZM76.54,187.49c.19-.09.36-.06.52.09.84,1.09,1.44,2.28,1.78,3.56.34,1.22.52,2.62.52,4.22,0,.34-.17.52-.52.52s-.52-.17-.52-.52c0-1.66-.14-3.03-.42-4.12-.31-1.12-.81-2.2-1.5-3.23-.09-.22-.05-.39.14-.52Z"/>
      <path class="st8" d="M82.63,186.55c.25.16.28.39.09.7-.28.5-.66,1.05-1.12,1.64,1.12,0,2.16-.03,3.09-.09-.28-.44-.58-.87-.89-1.31-.09-.16-.08-.28.05-.37.12-.09.27-.08.42.05.53.47,1.05,1.11,1.55,1.92.19.28.16.5-.09.66-.22.09-.41.02-.56-.23l-.14-.19c-1.69.22-3.22.31-4.59.28-.16-.03-.23-.14-.23-.33s.06-.3.19-.33c.19-.03.38-.05.56-.05.37-.59.73-1.25,1.08-1.97.16-.37.36-.5.61-.37ZM84.41,190.44c.19,0,.36.08.52.23s.23.33.23.52v5.06c0,.28-.08.5-.23.66-.16.16-.37.23-.66.23-.5,0-.95-.05-1.36-.14-.22-.06-.31-.19-.28-.37.06-.22.22-.3.47-.23.31.09.67.12,1.08.09.22-.03.33-.14.33-.33v-1.45h-3.05v2.16c0,.25-.11.37-.33.37s-.33-.12-.33-.37v-5.67c0-.19.08-.36.23-.52.16-.16.33-.23.52-.23h2.86ZM81.46,191.38v.89h3.05v-.89c0-.25-.12-.37-.38-.37h-2.3c-.25,0-.37.12-.37.37ZM81.46,194.15h3.05v-1.31h-3.05v1.31ZM86.52,186.83c0-.25.11-.37.33-.37s.33.12.33.37v1.45c1.09-.25,1.95-.56,2.58-.94.34-.19.58-.16.7.09.09.28-.03.48-.37.61-.72.34-1.69.64-2.91.89v1.36c0,.25.12.37.37.37h2.06c.5,0,.75-.25.75-.75v-.66c0-.25.11-.37.33-.37s.33.12.33.37v.94c0,.75-.37,1.12-1.12,1.12h-2.62c-.19,0-.36-.08-.52-.23-.16-.16-.23-.33-.23-.52v-3.75ZM86.52,192.18c0-.25.11-.37.33-.37s.33.12.33.37v1.59c1-.16,1.89-.45,2.67-.89.31-.19.53-.17.66.05.12.22.02.44-.33.66-.62.37-1.62.66-3,.84v1.64c0,.25.12.37.37.37h2.02c.5,0,.75-.25.75-.75v-.61c0-.25.11-.37.33-.37s.33.12.33.37v.94c0,.72-.36,1.08-1.08,1.08h-2.62c-.19,0-.36-.08-.52-.23-.16-.16-.23-.33-.23-.52v-4.17Z"/>
      <path class="st8" d="M96.06,187.07c0-.31.14-.47.42-.47s.42.16.42.47v1.64h4.27c.19,0,.36.08.52.23.16.16.23.33.23.52v3.42c0,1.87-.27,3.08-.8,3.61-.34.34-.91.52-1.69.52-.87,0-1.83-.16-2.86-.47-.28-.09-.42-.23-.42-.42,0-.28.2-.37.61-.28,1.12.25,2.05.37,2.77.37.41,0,.75-.14,1.03-.42.34-.34.52-1.31.52-2.91v-3.14c0-.25-.12-.37-.37-.37h-3.84c-.22,3.16-1.59,5.62-4.12,7.41-.25.16-.45.16-.61,0-.16-.22-.09-.42.19-.61,2.31-1.78,3.55-4.05,3.7-6.8h-3.33c-.25,0-.37-.11-.37-.33s.12-.33.37-.33h3.37v-1.64Z"/>
      <path class="st8" d="M106.79,186.79c.09-.22.27-.31.52-.28.25.09.34.27.28.52s-.14.5-.23.75c1.62-.06,3.28-.17,4.97-.33.28-.03.44.09.47.37,0,.25-.14.39-.42.42-2.37.12-4.12.2-5.25.23-.25.72-.66,1.48-1.22,2.3.94-.5,1.58-.8,1.92-.89.31-.09.64-.14.98-.14.47,0,.87.14,1.22.42.34.31.55.78.61,1.41.78-.22,1.55-.44,2.3-.66.25-.03.42.08.52.33.06.28-.05.45-.33.52-.84.22-1.64.42-2.39.61v1.97c0,.31-.14.47-.42.47s-.42-.16-.42-.47v-1.69c-1.81.56-3.05,1.14-3.7,1.73-.34.31-.52.61-.52.89,0,.34.2.61.61.8.31.12.98.19,2.02.19.87,0,1.62-.03,2.25-.09.72-.06,1.37-.16,1.97-.28.25,0,.41.12.47.37,0,.25-.11.41-.33.47-.44.12-1.25.22-2.44.28-1.06.03-1.75.05-2.06.05-1.22,0-2.08-.17-2.58-.52-.44-.34-.66-.73-.66-1.17,0-.59.27-1.11.8-1.55.75-.66,2.12-1.33,4.12-2.02-.03-.87-.5-1.31-1.41-1.31-.47,0-1.03.16-1.69.47-.72.31-1.61.98-2.67,2.02-.22.16-.41.14-.56-.05-.12-.19-.11-.37.05-.56.62-.56,1.17-1.17,1.64-1.83.44-.66.78-1.33,1.03-2.02h-2.3c-.28,0-.42-.12-.42-.37s.14-.37.42-.37h2.53l.33-.98Z"/>
      <path class="st8" d="M116.9,187.35c.41,0,.61.2.61.61v6.84c0,.41-.2.61-.61.61h-1.73c-.41,0-.61-.2-.61-.61v-6.84c0-.41.2-.61.61-.61h1.73ZM115.21,188.24v6.28c0,.16.08.23.23.23h1.17c.16,0,.23-.08.23-.23v-6.28c0-.16-.08-.23-.23-.23h-1.17c-.16,0-.23.08-.23.23ZM123.6,186.55c.28.06.37.28.28.66-.19.59-.45,1.16-.8,1.69h1.27c.25,0,.37.11.37.33s-.12.33-.37.33h-2.72v2.44h3.09c.25,0,.37.11.37.33s-.12.33-.37.33h-3.09c.53,1.53,1.55,2.73,3.05,3.61.31.16.42.37.33.66-.16.22-.41.25-.75.09-1.19-.69-2.16-1.75-2.91-3.19-.56,1.28-1.95,2.41-4.17,3.37-.34.12-.56.08-.66-.14-.06-.22.05-.39.33-.52,2.44-1.09,3.78-2.39,4.03-3.89h-2.53c-.25,0-.37-.11-.37-.33s.12-.33.37-.33h2.62v-2.44h-2.44c-.25,0-.37-.11-.37-.33s.12-.33.37-.33h1.08c-.19-.59-.39-1.12-.61-1.59-.12-.25-.09-.44.09-.56.22-.09.41-.02.56.23.31.53.59,1.17.84,1.92h1.83c.31-.56.58-1.22.8-1.97.06-.28.22-.41.47-.37Z"/>
      <path class="st8" d="M129.34,186.97c.06-.28.23-.39.52-.33.25.06.36.2.33.42-.12.5-.27,1-.42,1.5.81-.09,1.33-.14,1.55-.14.72,0,1.3.22,1.73.66.53.56.8,1.55.8,2.95,0,1.25-.16,2.33-.47,3.23-.37,1.03-1.03,1.53-1.97,1.5-.37,0-.8-.09-1.27-.28-.47-.19-.87-.42-1.22-.7-.16-.12-.19-.27-.09-.42.06-.12.19-.16.37-.09.78.44,1.47.67,2.06.7.53,0,.95-.31,1.27-.94s.47-1.59.47-2.91c0-1.22-.14-2.02-.42-2.39-.31-.41-.73-.61-1.27-.61-.53.03-1.11.11-1.73.23-.59,1.97-1.08,3.36-1.45,4.17-.41,1-.84,1.92-1.31,2.77-.19.25-.41.31-.66.19-.22-.19-.27-.41-.14-.66.5-.78.97-1.67,1.41-2.67.44-1,.88-2.22,1.31-3.66-.69.06-1.39.12-2.11.19-.31,0-.48-.12-.52-.37,0-.28.16-.44.47-.47.75-.03,1.53-.09,2.34-.19.16-.56.3-1.12.42-1.69ZM133.93,187.63c.16-.12.34-.12.56,0,.56.59,1.08,1.37,1.55,2.34.34.78.55,1.56.61,2.34,0,.31-.14.48-.42.52-.28.03-.45-.11-.52-.42-.06-.66-.25-1.41-.56-2.25-.28-.72-.69-1.39-1.22-2.02-.12-.19-.12-.36,0-.52Z"/>
      <path class="st8" d="M146.12,189.93v1.12c0,1.22-.14,2-.42,2.34-.28.34-.64.52-1.08.52-.66,0-1.37-.2-2.16-.61-.22-.16-.27-.34-.14-.56.09-.16.25-.19.47-.09.38.16.67.27.89.33.22.06.47.09.75.09.34,0,.56-.11.66-.33.12-.28.19-.73.19-1.36v-1.41l-5.2.38v3.28c0,.91.17,1.55.52,1.92.34.37.91.56,1.69.56,1.03,0,2.06-.05,3.09-.14.41-.03.86-.09,1.36-.19.31,0,.48.14.52.42,0,.25-.14.41-.42.47-.91.09-1.83.16-2.77.19h-1.78c-1.16,0-1.95-.28-2.39-.84-.44-.5-.66-1.36-.66-2.58v-3.05l-1.55.09c-.22,0-.34-.11-.37-.33,0-.25.12-.39.37-.42l1.55-.09v-1.87c0-.31.14-.47.42-.47s.42.16.42.47v1.83l5.2-.38v-2.06c0-.31.14-.47.42-.47s.42.16.42.47v2.02l1.59-.09c.31-.03.47.09.47.37,0,.22-.16.34-.47.37l-1.59.09Z"/>
      <path class="st8" d="M154.63,186.97c0-.31.14-.47.42-.47s.42.16.42.47v.98l3.14-.14c.25,0,.37.14.37.42,0,.25-.12.37-.37.37l-3.14.09v1.73l3.14-.14c.25,0,.37.14.37.42,0,.25-.12.38-.37.38l-3.09.09v2.58c1.62.78,2.7,1.41,3.23,1.87.22.22.23.45.05.7-.22.16-.44.16-.66,0-.91-.69-1.78-1.27-2.62-1.73-.06.78-.36,1.41-.89,1.87-.47.41-1.22.61-2.25.61-.97,0-1.7-.23-2.2-.7-.41-.37-.62-.84-.66-1.41,0-.59.22-1.09.66-1.5.5-.41,1.17-.61,2.02-.61.69,0,1.52.19,2.48.56v-2.2l-2.58.05h-2.62c-.28,0-.42-.12-.42-.37s.14-.37.42-.37h2.58l2.58-.05v-1.73l-2.58.05h-2.58c-.28,0-.42-.12-.42-.37s.14-.37.42-.37h2.58l2.58-.05v-1.03ZM150.83,193.91c-.37.28-.56.61-.56.98,0,.44.19.81.56,1.12.37.28.94.42,1.69.42.69,0,1.23-.19,1.64-.56.34-.34.52-.89.52-1.64-1.06-.47-1.92-.7-2.58-.7-.47,0-.89.12-1.27.37Z"/>
      <path class="st8" d="M166.72,187.02c0-.31.14-.47.42-.47s.42.16.42.47v.89l2.81-.09c.28,0,.42.12.42.37s-.14.37-.42.37l-2.81.09v2.95c.12.53.22.95.28,1.27.03.22.05.48.05.8,0,1.06-.44,1.92-1.31,2.58-.87.66-2.14.98-3.8.98-.22-.03-.33-.14-.33-.33,0-.22.11-.34.33-.37,1.31,0,2.34-.25,3.09-.75.75-.5,1.12-1.12,1.12-1.87v-.7c-.59.91-1.34,1.36-2.25,1.36-.81,0-1.44-.23-1.88-.7-.44-.5-.66-1.05-.66-1.64,0-.62.23-1.2.7-1.73.37-.37.83-.61,1.36-.7.31-.06.62-.06.94,0,.59.12,1.09.41,1.5.84v-1.92c-2.19.09-4.27.16-6.23.19-.22,0-.33-.12-.33-.37s.11-.37.33-.37c2.06-.03,4.14-.09,6.23-.19v-.94ZM163.39,191c-.28.37-.42.75-.42,1.12,0,.56.2,1.02.61,1.36.31.25.69.37,1.12.37.53,0,.98-.17,1.36-.52.34-.38.52-.75.52-1.12,0-.44-.11-.81-.33-1.12-.38-.47-.88-.7-1.5-.7-.53,0-.98.2-1.36.61Z"/>
      <path class="st8" d="M180.5,191.57c.25,0,.38.11.38.33s-.12.33-.38.33h-4.31c-.25,0-.37-.11-.37-.33s.12-.33.37-.33h4.31Z"/>
    </g>
    <g>
      <path class="st6" d="M70.24,10.11c2.57-1.98,5.33-3.73,8.25-5.2,5.43-2.73,11.65-4.92,17.8-4.92,11.37,0,21.2,1.02,31.19,7.02,7.08,4.25,13.66,9.75,17.79,17,8.9,15.59,11.28,36.39-.21,51.37-7.34,9.57-17.79,16.62-30.41,14.76-18.19-2.68-27.16-26.69-12.77-39.22,4.49-3.91,9.69-5.9,15.62-5.92,5.9-.02,13.05,2.98,15.94,8.38v1.05c0-1.83-8.78-4.32-10.23-4.54-3.8-.59-7.88-.03-11.39,1.53-8.15,3.61-11.61,13.83-7.56,21.8,1.72,3.4,5.33,6.37,8.87,7.63,8.59,3.07,17.37-2.64,22.22-9.45,1.47-2.06,2.84-4.41,3.82-6.74,4.2-10.08,4.15-21.81-1.1-31.5-3.01-5.56-8.02-11.21-13.3-14.73-4-2.67-8.47-4.5-13.15-5.56-15.26-3.45-31.92-.07-43.1,11.51-2.7,2.8-5.11,6.38-6.43,10.07-3.13,8.77-4.14,21.04-1.8,30.06,2.82,10.87,10.45,21.1,20.46,26.36,2.96,1.55,6.39,2.03,9.07,4.12-4.5-8.99-11.32-16.88-11.32-27.47v-6.28c.18-2.79.87-5.07,1.05-7.85.77.1.48,1.26.52,2.09-.76,14.19,3.96,22.9,9.42,30.87,2.41,5.12,9.14,8.62,10.47,13.08-.02.17-11.94-.9-13.01-1-14.78-1.5-27.62-13.4-32.78-26.87-1.52-3.98-2.7-8.22-3.52-12.4-1.34-6.87-1.04-13.92.73-20.69,2.94-11.22,9.71-21.29,18.86-28.35Z"/>
      <path class="st3" d="M103.61,35.58c-7.1-.13-12.48,1.47-17.79,3.14,2.27-10.49,5.55-22.67,18.84-20.41.99,1.5.58,5.22,0,6.8,3.87-.56,8.94-2.84,12.56-.52.63,1.47.58,3.61.52,5.76v.52c-.7,2.09-2.53,3.05-4.19,4.19h-.53c-2.97.34-7.32-.69-9.42.52Z"/>
      <path class="st2" d="M65.93,40.82c-3.6-6.64,2.46-11.54,8.9-11.51,1.17-5.99,6.08-13.58,13.08-8.89,1.39,7.01-4.67,10.52-4.19,18.31-6.02-1.69-11.45,4.08-17.79,2.09Z"/>
      <path class="st4" d="M82.68,51.81c.59-3.77,1.37-7.35,2.62-10.46,5.79-1.56,17.76-6.01,22.5-.52-.07,7.08-6.48,7.83-13.61,7.85h-.52v6.8c.85,6.51-10.26,9.02-10.99,2.09v-5.76Z"/>
      <path class="st1" d="M66.98,57.56c-2.13.13-2.58,1.95-5.23,1.57-3.29-12.49,9.41-17.71,20.93-18.84.6,2.42-1.17,1.66-2.62,4.19-1.24,2.17-2.38,6.22-3.14,9.42-1.41,5.93-.62,13.86-5.75,14.65-6.06.93-7.01-5.85-4.19-10.99Z"/>
      <path class="st5" d="M127.16,63.32c-.78-1.1-.72-2.6-.16-3.77.94-1.98,2.47-1.16,2.78.63.28,1.65-.39,4.61-2.62,3.14Z"/>
      <path class="st5" d="M109.89,69.08v-2.09c.42.1.52.53,1.05.52.78,9.15,17.47,8.73,17.79-.52.42.1.52.53,1.05.52.07,11.34-18.49,12.14-19.89,1.57Z"/>
      <path class="st0" d="M128.81,63.87c.03-.09.06-.19.11-.28,1.14-2.36,4.75-1.36,3.69,1.35-.56,1.43-2.39,1.78-3.43.64-.43-.47-.55-1.13-.37-1.72Z"/>
      <path class="st0" d="M109.72,62.48c.95.64,1.7,2.02,1.25,2.92-.68,1.39-2.63.95-3.59.18-1.51-1.21-.78-3.17,1.15-3.45.39-.06.8.08,1.19.34Z"/>
      <path class="st5" d="M110.98,63.71c-.16-.06-.33-.17-.5-.31-.81-.68-.67-2.74-.39-3.63.32-1.03,1.4-2.27,2.48-1.24.84.8.55,2.54.37,3.55-.2,1.04-.96,2.03-1.95,1.63Z"/>
    </g>
  </g>
  <g>
    <path class="st7" d="M35.08,118.7c-.28-.72-.49-1.17-.76-1.69l1.89-.62c.45.83.75,1.61.95,2.31h1.53c-.2-.69-.33-.99-.7-1.88l1.91-.56c.3.72.69,1.79.81,2.44h1.14c.4-.91.68-2.08.75-2.38l2.02.56c-.28.8-.38,1.1-.71,1.82h1.2v3.94h-1.59v.86c-.71.67-1.22,1.05-2.59,1.92h4.49v2.17h-4.95v2.28c0,.97-.45,1.64-1.22,1.64h-2.71l-.31-2.32h1.81c.34,0,.45-.05.45-.61v-1.01h-5v-2.17h5v-.8h.49c.45-.22.84-.46,1.17-.85h-4.75v-1.13h-1.6v-3.94h1.3ZM43.24,120.79h-7.58v.88h7.58v-.88Z"/>
    <path class="st7" d="M45.84,125.45c.68-1.12,1.08-2.06,1.43-4.25h-1.23v-2.19h1.43v-2.65h1.71v2.65h1.12v2.19h-1.12v.99c.5,1.09,1.04,1.85,1.64,2.65l-.81,2.17c-.2-.32-.39-.64-.83-1.68v6.15h-1.71v-5.99c-.3,1.29-.69,2.24-1.1,3.13l-.53-3.18ZM49.65,129.25c1.49-.49,2.34-1.07,3.02-1.68-.87-1.52-1.35-3.4-1.43-3.69-.08.05-.11.1-.25.21l-1.05-1.85c.94-.7,1.73-1.71,2.13-2.44h-1.74v-2.16h2.81v-1.28h1.87v1.28h2.88v2.16h-5.78l1.44,1.15c-.68,1.39-1.96,2.6-2.24,2.87l1.57-.78c.28.96.6,1.9,1.15,2.87.4-.72.76-1.56,1.07-2.92l1.67.81c-.93-.85-1.59-1.84-2.22-2.87.53-.38,1.15-.86,1.55-1.12.54.8,1.27,1.66,2.03,2.28l-.93,2.08c-.23-.18-.28-.22-.38-.32-.28,1.02-.59,2.19-1.54,3.7,1.07.99,2.44,1.47,2.86,1.61l-.9,2.32c-.88-.37-2.13-.94-3.31-2.19-1.23,1.29-2.43,1.85-3.35,2.19l-.93-2.24Z"/>
    <path class="st7" d="M62.1,125.99c-.6,1.68-1.53,3.99-2.52,5.46l-1.2-2.22c1.15-1.69,2.16-4.34,2.27-4.61l1.45,1.37ZM59.4,120.34c.55.26,1.58,1.01,2.21,1.68l-1.09,2c-1.02-1.07-1.69-1.5-2.09-1.74l.98-1.93ZM59.76,116.32c.46.19,1.78,1.07,2.24,1.56l-1.13,2.01c-.65-.67-1.32-1.23-2.14-1.72l1.03-1.85ZM65.99,124.83c-.38,1.33-.78,2.62-1.24,3.9.19,0,2.44-.19,2.78-.22-.29-.7-.64-1.49-1.01-2.12l1.58-1.02c.98,1.52,1.89,3.74,2.36,5.25l-1.77,1.07c-.1-.32-.14-.48-.36-1.12-1.68.29-4.76.54-6.48.62l-.23-2.32c.31-.02.98-.05,1.09-.05.48-1.23.86-2.57,1.19-3.99h-2.02v-2.24h3.32v-2.04h-2.85v-2.27h2.85v-1.88h1.91v1.88h2.87v2.27h-2.87v2.04h3.3v2.24h-4.41Z"/>
    <path class="st7" d="M76.05,116.4h2.03v2.48c0,.81.18,3.29,1.15,5.83,1.08,2.76,3.17,4.02,3.94,4.49l-1.25,2.32c-2.23-1.58-4.01-4.04-4.85-7.49-.79,3.53-2.87,6.05-4.89,7.49l-1.27-2.27c1.88-1.05,3.22-2.59,4.11-4.85.64-1.64,1.03-3.69,1.03-5.51v-2.48Z"/>
    <path class="st7" d="M98.76,116.96v14.04h-10.1v-14.04h10.1ZM90.63,122.71h6.13v-3.37h-6.13v3.37ZM90.63,125.04v3.58h6.13v-3.58h-6.13Z"/>
    <path class="st7" d="M103.04,127.38c-.94,1.26-1.49,1.76-1.87,2.11l-1.09-2.41c2.21-1.85,3.41-3.78,4.35-6.13h-4.17v-2.32h4.99v-2.3h1.89v2.3h5v2.32h-4.21c.82,2.38,2.69,4.77,4.41,6.08l-1.1,2.46c-.38-.34-1.02-.89-1.89-2.08v1.56h-2.24v2.59h-1.86v-2.59h-2.21v-1.6ZM105.24,126.75v-3.35c-.25.62-.68,1.74-1.77,3.35h1.77ZM108.88,126.75c-.83-1.25-1.27-2.12-1.78-3.35v3.35h1.78Z"/>
    <path class="st7" d="M118.09,129.32c.54-.29,1.63-.86,2.63-2.32-.19-.46-.55-1.37-.81-2.78-.15.26-.29.49-.38.65l-1.1-2.24c.1-.16.14-.22.18-.29h-1.28c-.1.14-.25.35-.64.83h1.91v1.68c-.31.49-1.1,1.18-1.4,1.44,1.13-.11,1.67-.21,2.08-.27v2.03c-.63.13-1.17.19-2.16.32v1.42c0,.42,0,1.71-1.03,1.71h-2.02l-.29-2.09h1.3c.34,0,.34-.19.34-.4v-.46c-.24.02-2.49.21-2.59.24l-.11-2.19c.07,0,2.46-.14,2.71-.16v-.61h.33c.45-.5.56-.67.64-.81h-1.47c-.68.57-1.09.85-1.45,1.07l-.83-1.98c.44-.21,1.22-.59,2.37-1.76h-2.18v-2.04h1.98v-.85h-1.74v-2.01h1.74v-1.1h1.7v1.1h1.3v.77c.25-.57.41-1.01.61-1.63l1.49.94c-.23.58-.6,1.53-1.3,2.78h.6v.8c.83-2.08,1.07-3.94,1.15-4.79l1.78.13c-.07.65-.13,1.2-.25,1.92h2.76v2.44h-.53c-.06,1.01-.23,3.9-1.22,6.2.75,1.1,1.45,1.69,1.97,2.12l-1.13,2.38c-.36-.35-1.14-1.1-2.01-2.48-1.08,1.41-1.98,2.09-2.48,2.46l-1.18-2.17ZM116.36,119.35v.96h.43c.35-.51.49-.75.6-.96h-1.03ZM121.36,120.8c-.15.46-.21.67-.3.89.24,1.8.61,2.78.75,3.15.25-.72.59-1.93.6-4.04h-1.05Z"/>
    <path class="st7" d="M135.3,122.61c-.38-.5-.39-.51-.79-.96-.58.08-5.34.49-8.77.53l-.11-2.03c.3.02,1.82.02,2.16.02.21-.4.3-.56.51-1.01h-2.97v-2h4.95v-.85h1.92v.85h5.03v2h-2.36c.51.41,1.43,1.17,2.21,2.06l-1.62,1.39h.48v7.44c0,1.28-.69,1.47-1.14,1.47h-2.58l-.33-2.06h1.83c.21,0,.31-.02.31-.34v-.46h-5.52v2.86h-1.91v-8.91h8.7ZM134.03,124.22h-5.52v.72h5.52v-.72ZM134.03,126.44h-5.52v.73h5.52v-.73ZM132.9,119.16h-2.49c-.09.14-.46.83-.54.97.86,0,1.97-.08,2.83-.14-.23-.16-.28-.21-.51-.37l.71-.46Z"/>
    <path class="st7" d="M142.91,126.89v.75h-.69c.09.18.73,1.31,1.25,2.71l-1.58.97c-.23-.94-.66-2.17-1.05-2.92l1.15-.77h-3.13l1.38.77c-.22.99-.66,2.27-1.23,3.1l-1.38-1.36c.5-.73.81-1.6,1.07-2.51h-.49v-10.94h4.7v9.57c1.53-1.56,2.72-3.83,3.22-4.93h-2.9v-2.36h3.52v-2.62h1.93v2.62h1.04v2.36h-1.04v8.1c0,.89,0,2.08-1.27,2.08h-2.52l-.36-2.41h1.6c.48,0,.61-.06.61-.7v-4.57c-1.23,2.75-2.56,4.31-3.02,4.87l-.83-1.8ZM139.92,118.84v1.05h1.27v-1.05h-1.27ZM139.92,121.6v1.09h1.27v-1.09h-1.27ZM139.92,124.46v1.07h1.27v-1.07h-1.27Z"/>
    <path class="st7" d="M161.79,116.84v14.21h-10.92v-14.21h10.92ZM152.74,119.08v9.72h7.22v-9.72h-7.22ZM158.83,127.03c0,1.01-.54,1.36-1.22,1.36h-1.82l-.23-2.04h1.13c.35,0,.38-.24.38-.43v-3.07h-3.97v-2.06h3.97v-1.28h1.75v1.28h.78v2.06h-.78v4.18ZM154.7,122.99c.69,1.12,1.08,2.01,1.38,2.76l-1.5,1.28c-.15-.43-.58-1.66-1.28-2.91l1.4-1.13Z"/>
  </g>
</svg>