<?xml version="1.0" encoding="UTF-8"?>
<svg id="_レイヤー_1" xmlns="http://www.w3.org/2000/svg" version="1.1" viewBox="0 0 300 300">
  <!-- Generator: Adobe Illustrator 29.3.1, SVG Export Plug-In . SVG Version: 2.1.0 Build 151)  -->
  <defs>
    <style>
      .st0 {
        fill: #8fba7b;
      }

      .st0, .st1, .st2, .st3, .st4, .st5, .st6 {
        fill-rule: evenodd;
      }

      .st1 {
        fill: #e3b339;
      }

      .st2 {
        fill: #0f0e0c;
      }

      .st3 {
        fill: #f27179;
      }

      .st4 {
        fill: #89b04b;
      }

      .st5 {
        fill: #f7a26a;
      }

      .st6 {
        fill: #0066b3;
      }
    </style>
  </defs>
  <path class="st4" d="M61,36.5c7.4-5.7,15.3-10.7,23.6-14.9,15.6-7.8,33.4-14.1,51-14.1,32.6,0,60.7,2.9,89.4,20.1,20.3,12.2,39.1,27.9,51,48.7,25.5,44.7,32.3,104.2-.6,147.2-21,27.4-51,47.6-87.1,42.3-52.1-7.7-77.8-76.5-36.6-112.4,12.9-11.2,27.8-16.9,44.7-17,16.9,0,37.4,8.5,45.7,24v3c0-5.2-25.2-12.4-29.3-13-10.9-1.7-22.6,0-32.6,4.4-23.3,10.3-33.3,39.6-21.7,62.5,4.9,9.7,15.3,18.2,25.4,21.9,24.6,8.8,49.8-7.6,63.7-27.1,4.2-5.9,8.1-12.6,10.9-19.3,12-28.9,11.9-62.5-3.2-90.2-8.6-15.9-23-32.1-38.1-42.2-11.5-7.6-24.3-12.9-37.7-15.9-43.7-9.9-91.4-.2-123.5,33-7.7,8-14.6,18.3-18.4,28.8-9,25.1-11.9,60.3-5.2,86.1,8.1,31.1,29.9,60.4,58.6,75.5,8.5,4.4,18.3,5.8,26,11.8-12.9-25.8-32.4-48.4-32.4-78.7v-18c.5-8,2.5-14.5,3-22.5,2.2.3,1.4,3.6,1.5,6-2.2,40.7,11.3,65.6,27,88.4,6.9,14.7,26.2,24.7,30,37.5,0,.5-34.2-2.6-37.3-2.9-42.3-4.3-79.1-38.4-93.9-77-4.4-11.4-7.7-23.5-10.1-35.5-3.8-19.7-3-39.9,2.1-59.3,8.4-32.1,27.8-61,54-81.2h0Z"/>
  <path class="st5" d="M156.5,109.5c-20.3-.4-35.8,4.2-51,9,6.5-30.1,15.9-64.9,54-58.5,2.8,4.3,1.7,15,0,19.5,11.1-1.6,25.6-8.1,36-1.5,1.8,4.2,1.7,10.3,1.5,16.5v1.5c-2,6-7.2,8.7-12,12h-1.5c-8.5,1-21-2-27,1.5h0Z"/>
  <path class="st0" d="M48.6,124.5c-10.3-19,7-33.1,25.5-33,3.4-17.2,17.4-38.9,37.5-25.5,4,20.1-13.4,30.1-12,52.5-17.2-4.8-32.8,11.7-51,6Z"/>
  <path class="st6" d="M96.6,156c1.7-10.8,3.9-21.1,7.5-30,16.6-4.5,50.9-17.2,64.5-1.5-.2,20.3-18.6,22.4-39,22.5h-1.5v19.5c2.4,18.6-29.4,25.8-31.5,6,0,0,0-16.5,0-16.5Z"/>
  <path class="st3" d="M51.6,172.5c-6.1.4-7.4,5.6-15,4.5-9.4-35.8,27-50.7,60-54,1.7,6.9-3.4,4.8-7.5,12-3.6,6.2-6.8,17.8-9,27-4,17-1.8,39.7-16.5,42-17.4,2.7-20.1-16.8-12-31.5Z"/>
  <path class="st2" d="M224,189c-2.2-3.2-2.1-7.4-.5-10.8,2.7-5.7,7.1-3.3,8,1.8.8,4.7-1.1,13.2-7.5,9Z"/>
  <path class="st2" d="M174.5,205.5v-6c1.2.3,1.5,1.5,3,1.5,2.2,26.2,50,25,51-1.5,1.2.3,1.5,1.5,3,1.5.2,32.5-53,34.8-57,4.5h0Z"/>
  <path class="st1" d="M228.7,190.5c0-.3.2-.5.3-.8,3.3-6.8,13.6-3.9,10.6,3.9-1.6,4.1-6.8,5.1-9.8,1.8-1.2-1.3-1.6-3.2-1.1-4.9h0Z"/>
  <path class="st1" d="M174,186.6c2.7,1.8,4.9,5.8,3.6,8.4-1.9,4-7.5,2.7-10.3.5-4.3-3.5-2.2-9.1,3.3-9.9,1.1-.2,2.3.2,3.4,1h0Z"/>
  <path class="st2" d="M177.7,190.1c-.5-.2-.9-.5-1.4-.9-2.3-1.9-1.9-7.8-1.1-10.4.9-3,4-6.5,7.1-3.6,2.4,2.3,1.6,7.3,1.1,10.2-.6,3-2.8,5.8-5.6,4.7h0Z"/>
</svg>