<?xml version="1.0" encoding="UTF-8"?>
<svg id="_レイヤー_1" xmlns="http://www.w3.org/2000/svg" version="1.1" viewBox="0 0 300 125.7">
  <!-- Generator: Adobe Illustrator 29.3.1, SVG Export Plug-In . SVG Version: 2.1.0 Build 151)  -->
  <defs>
    <style>
      .st0 {
        fill: #8fba7b;
      }

      .st0, .st1, .st2, .st3, .st4, .st5, .st6 {
        fill-rule: evenodd;
      }

      .st1 {
        fill: #e3b339;
      }

      .st2 {
        fill: #0f0e0c;
      }

      .st3 {
        fill: #f27179;
      }

      .st4 {
        fill: #89b04b;
      }

      .st5 {
        fill: #f7a26a;
      }

      .st6 {
        fill: #0066b3;
      }
    </style>
  </defs>
  <path class="st4" d="M118.9,23.2c2.6-2,5.3-3.7,8.2-5.2,5.4-2.7,11.7-4.9,17.8-4.9,11.4,0,21.2,1,31.2,7,7.1,4.3,13.7,9.8,17.8,17,8.9,15.6,11.3,36.4-.2,51.4-7.3,9.6-17.8,16.6-30.4,14.8-18.2-2.7-27.2-26.7-12.8-39.2,4.5-3.9,9.7-5.9,15.6-5.9,5.9,0,13,3,15.9,8.4v1c0-1.8-8.8-4.3-10.2-4.5-3.8-.6-7.9,0-11.4,1.5-8.2,3.6-11.6,13.8-7.6,21.8,1.7,3.4,5.3,6.4,8.9,7.6,8.6,3.1,17.4-2.6,22.2-9.4,1.5-2.1,2.8-4.4,3.8-6.7,4.2-10.1,4.1-21.8-1.1-31.5-3-5.6-8-11.2-13.3-14.7-4-2.7-8.5-4.5-13.2-5.6-15.3-3.4-31.9,0-43.1,11.5-2.7,2.8-5.1,6.4-6.4,10.1-3.1,8.8-4.1,21-1.8,30.1,2.8,10.9,10.5,21.1,20.5,26.4,3,1.6,6.4,2,9.1,4.1-4.5-9-11.3-16.9-11.3-27.5v-6.3c.2-2.8.9-5.1,1.1-7.8.8,0,.5,1.3.5,2.1-.8,14.2,4,22.9,9.4,30.9,2.4,5.1,9.1,8.6,10.5,13.1,0,.2-11.9-.9-13-1-14.8-1.5-27.6-13.4-32.8-26.9-1.5-4-2.7-8.2-3.5-12.4-1.3-6.9-1-13.9.7-20.7,2.9-11.2,9.7-21.3,18.9-28.4h0Z"/>
  <path class="st5" d="M152.3,48.7c-7.1-.1-12.5,1.5-17.8,3.1,2.3-10.5,5.6-22.7,18.8-20.4,1,1.5.6,5.2,0,6.8,3.9-.6,8.9-2.8,12.6-.5.6,1.5.6,3.6.5,5.8v.5c-.7,2.1-2.5,3.1-4.2,4.2h-.5c-3,.3-7.3-.7-9.4.5h0Z"/>
  <path class="st0" d="M114.6,53.9c-3.6-6.6,2.5-11.5,8.9-11.5,1.2-6,6.1-13.6,13.1-8.9,1.4,7-4.7,10.5-4.2,18.3-6-1.7-11.4,4.1-17.8,2.1Z"/>
  <path class="st6" d="M131.4,64.9c.6-3.8,1.4-7.3,2.6-10.5,5.8-1.6,17.8-6,22.5-.5,0,7.1-6.5,7.8-13.6,7.8h-.5v6.8c.8,6.5-10.3,9-11,2.1,0,0,0-5.8,0-5.8Z"/>
  <path class="st3" d="M115.7,70.7c-2.1.1-2.6,2-5.2,1.6-3.3-12.5,9.4-17.7,20.9-18.8.6,2.4-1.2,1.7-2.6,4.2-1.2,2.2-2.4,6.2-3.1,9.4-1.4,5.9-.6,13.9-5.8,14.7-6.1.9-7-5.8-4.2-11Z"/>
  <path class="st2" d="M175.8,76.4c-.8-1.1-.7-2.6-.2-3.8.9-2,2.5-1.2,2.8.6.3,1.7-.4,4.6-2.6,3.1Z"/>
  <path class="st2" d="M158.6,82.2v-2.1c.4,0,.5.5,1.1.5.8,9.2,17.5,8.7,17.8-.5.4,0,.5.5,1.1.5,0,11.3-18.5,12.1-19.9,1.6h0Z"/>
  <path class="st1" d="M177.5,77c0,0,0-.2.1-.3,1.1-2.4,4.8-1.4,3.7,1.4-.6,1.4-2.4,1.8-3.4.6-.4-.5-.6-1.1-.4-1.7h0Z"/>
  <path class="st1" d="M158.4,75.6c.9.6,1.7,2,1.2,2.9-.7,1.4-2.6.9-3.6.2-1.5-1.2-.8-3.2,1.2-3.5.4,0,.8,0,1.2.3h0Z"/>
  <path class="st2" d="M159.7,76.8c-.2,0-.3-.2-.5-.3-.8-.7-.7-2.7-.4-3.6.3-1,1.4-2.3,2.5-1.2.8.8.6,2.5.4,3.5-.2,1-1,2-1.9,1.6h0Z"/>
</svg>